<svg width="128" height="128" viewBox="0 0 128 128" fill="none" xmlns="http://www.w3.org/2000/svg">
<path fill-rule="evenodd" clip-rule="evenodd" d="M87.517 81.7662C87.5186 81.7679 87.5154 81.7644 87.517 81.7662Z" fill="#2F325C"/>
<path d="M53.5967 104.402C53.9953 103.563 54.354 102.763 54.7526 101.963H73.2075C73.5662 102.763 73.9648 103.563 74.3634 104.402H53.5967Z" fill="#F1D4D6"/>
<path d="M72.2509 97.5806C72.9285 98.9906 73.6061 100.439 74.3236 102.001H53.5967C54.3142 100.477 54.9918 99.0287 55.6694 97.5806H72.2509Z" fill="#C97E85"/>
<path d="M72.2509 97.5425H55.6694C55.9883 96.8566 56.347 96.1325 56.6659 95.4466H71.2544C71.5733 96.1325 71.8922 96.8566 72.2509 97.5425Z" fill="#2F325C"/>
<path d="M68.0223 47.8127C68.0223 47.927 68.0223 48.0414 68.0223 48.1557C68.0223 48.2319 68.0223 48.3462 68.0223 48.4224C68.0223 48.4986 68.0223 48.5749 68.0223 48.613C68.0223 48.6892 68.0223 48.7273 67.9824 48.8035C67.9824 48.8797 67.9824 48.9178 67.9426 48.994C67.9426 49.0702 67.9027 49.1465 67.8628 49.2227C67.8628 49.2608 67.8628 49.337 67.823 49.3751C67.6635 49.7562 67.4642 50.0991 67.2251 50.404C67.1852 50.4802 67.1454 50.5183 67.1055 50.5564C67.0258 50.6707 66.9062 50.747 66.8265 50.8613C66.7866 50.8994 66.7468 50.9756 66.6671 51.0137C66.5475 51.0899 66.4678 51.2042 66.3482 51.2805C66.3083 51.2805 66.2685 51.3567 66.2286 51.3567C66.2286 51.3567 66.1489 51.3948 66.109 51.4329C66.0293 51.471 65.9496 51.5472 65.8699 51.5853C65.7902 51.6234 65.6706 51.6615 65.5909 51.7377C65.5111 51.7377 65.4713 51.7759 65.3916 51.814C65.3118 51.814 65.2321 51.8902 65.1524 51.8902C65.0727 51.8902 64.993 51.9283 64.9132 51.9664C64.8335 51.9664 64.7538 52.0045 64.6342 52.0426C64.5545 52.0426 64.4748 52.0426 64.3951 52.0426C64.3552 52.0426 64.3154 52.0426 64.2356 52.0426C64.0762 52.0426 63.9168 52.0426 63.7573 52.0426C63.5979 52.0426 63.4385 52.0426 63.279 52.0426C63.2392 52.0426 63.1993 52.0426 63.1196 52.0426C63.0399 52.0426 62.9601 52.0426 62.8804 52.0426C62.8007 52.0426 62.721 52.0426 62.6014 51.9664C62.5217 51.9664 62.442 51.9283 62.3623 51.8902C62.2825 51.8902 62.2028 51.814 62.1231 51.814C62.0434 51.814 62.0035 51.7759 61.9238 51.7377C61.8441 51.6996 61.7245 51.6615 61.6448 51.5853C61.5651 51.5472 61.4853 51.5091 61.4056 51.4329C61.4056 51.4329 61.3259 51.3948 61.286 51.3567C61.2462 51.3567 61.2063 51.2805 61.1665 51.2805C61.0469 51.2042 60.9273 51.128 60.8476 51.0137C60.8077 50.9756 60.728 50.9375 60.6882 50.8613C60.5686 50.747 60.4889 50.6707 60.4091 50.5564C60.3693 50.5183 60.3294 50.4421 60.2896 50.404C60.0504 50.0991 59.8511 49.7181 59.6917 49.3751C59.6917 49.337 59.6518 49.2608 59.6518 49.2227C59.6518 49.1465 59.612 49.0702 59.5721 48.994C59.5721 48.9178 59.5721 48.8797 59.5322 48.8035C59.5322 48.7273 59.5322 48.6892 59.4924 48.613C59.4924 48.5368 59.4924 48.4605 59.4924 48.4224C59.4924 48.3462 59.4924 48.27 59.4924 48.1557C59.4924 48.0414 59.4924 47.9651 59.4924 47.8508C59.4924 46.2884 60.3693 44.9166 61.6846 44.1544C61.8441 44.0782 62.0434 43.9639 62.2028 43.8877C62.2825 43.8877 62.3623 43.8115 62.442 43.8115C62.5217 43.8115 62.6014 43.7734 62.6811 43.7353C62.7608 43.7353 62.8406 43.6971 62.9601 43.659C63 43.659 63.0399 43.659 63.0797 43.659V7.95268C63.3189 7.68593 63.5979 7.38107 63.8769 7C64.1559 7.34296 64.4349 7.68593 64.6741 7.95268V43.6209C64.714 43.6209 64.7538 43.6209 64.7937 43.6209C64.8734 43.6209 64.9531 43.659 65.0727 43.6971C65.1524 43.6971 65.2321 43.7353 65.3118 43.7734C65.3916 43.8115 65.4713 43.8496 65.551 43.8496C65.7104 43.9258 65.9097 44.002 66.0692 44.1163C67.3845 44.8404 68.2614 46.2122 68.2614 47.7746L68.0223 47.8127Z" fill="#2F325C"/>
<path d="M64 52.195V95.4085H56.7057C56.7057 95.4085 53.7562 95.7515 53.0785 95.7896L48.0563 73.2683C46.5416 66.6376 45.0668 59.9689 43.5522 53.3001C43.1934 51.7377 43.034 50.1372 42.476 48.6892C41.3599 45.793 42.1172 43.3542 43.6319 40.7629C44.9871 38.4765 46.3423 36.19 47.6975 33.9417C48.1758 33.1415 48.6542 32.3031 49.1325 31.5029C49.4513 31.0075 49.7304 30.474 50.0492 29.9786C52.1618 26.3965 54.2345 22.8526 56.347 19.2705C58.1407 16.2219 59.9344 13.1734 61.728 10.0867C61.9273 9.78182 62.0868 9.47696 62.2861 9.134C62.5252 8.71482 62.8441 8.37186 63.2028 7.91457V43.5828C63.163 43.5828 63.1231 43.5828 63.0832 43.5828C63.0035 43.5828 62.9238 43.6209 62.8042 43.659C62.7245 43.659 62.6448 43.6971 62.5651 43.7353C62.4853 43.7734 62.4056 43.8115 62.3259 43.8115C62.1665 43.8877 61.9672 43.9639 61.8077 44.0782C60.4924 44.8023 59.6155 46.1741 59.6155 47.7365C59.6155 47.8508 59.6155 47.9651 59.6155 48.0795C59.6155 48.1557 59.6155 48.27 59.6155 48.3462C59.6155 48.4224 59.6155 48.4986 59.6155 48.5367C59.6155 48.613 59.6155 48.6511 59.6553 48.7273C59.6553 48.8035 59.6553 48.8416 59.6952 48.9178C59.6952 48.994 59.7351 49.0702 59.7749 49.1465C59.7749 49.1846 59.7749 49.2608 59.8148 49.2989C59.9742 49.68 60.1735 50.0229 60.4127 50.3278C60.4525 50.404 60.4924 50.4421 60.5322 50.4802C60.612 50.5945 60.7315 50.6708 60.8113 50.7851C60.8511 50.8232 60.891 50.8994 60.9707 50.9375C61.0903 51.0137 61.17 51.128 61.2896 51.2042C61.3294 51.2042 61.3693 51.2805 61.4091 51.2805C61.4091 51.2805 61.4889 51.3186 61.5287 51.3567C61.6084 51.3948 61.6882 51.471 61.7679 51.5091C61.8476 51.5472 61.9672 51.5853 62.0469 51.6615C62.1266 51.6615 62.1665 51.6996 62.2462 51.7377C62.3259 51.7377 62.4056 51.814 62.4853 51.814C62.5651 51.814 62.6448 51.8521 62.7245 51.8902C62.8042 51.8902 62.8839 51.9283 63.0035 51.9664C63.0832 51.9664 63.163 51.9664 63.2427 51.9664C63.2825 51.9664 63.3224 51.9664 63.4021 51.9664C63.5616 51.9664 63.721 51.9664 63.8804 51.9664L64 52.195Z" fill="#A3A6F0"/>
<path d="M85.5241 48.6892C84.966 50.1373 84.7667 51.7759 84.4478 53.3001C82.9332 59.9689 81.4185 66.6757 79.9437 73.2683L74.9215 95.7896C74.2439 95.7134 71.2943 95.4085 71.2943 95.4085H64V52.1569C64.1594 52.1569 64.3189 52.1569 64.4783 52.1569C64.5182 52.1569 64.558 52.1569 64.6378 52.1569C64.7175 52.1569 64.7972 52.1569 64.8769 52.1569C64.9566 52.1569 65.0363 52.1569 65.1559 52.0807C65.2356 52.0807 65.3154 52.0426 65.3951 52.0045C65.4748 52.0045 65.5545 51.9283 65.6342 51.9283C65.714 51.9283 65.7538 51.8902 65.8335 51.8521C65.9133 51.814 66.0328 51.7759 66.1125 51.6996C66.1923 51.6615 66.272 51.6234 66.3517 51.5472C66.3517 51.5472 66.4314 51.5091 66.4713 51.471C66.5111 51.471 66.551 51.3948 66.5909 51.3948C66.7104 51.3186 66.83 51.2424 66.9097 51.128C66.9496 51.0899 67.0293 51.0518 67.0692 50.9756C67.1888 50.8613 67.2685 50.7851 67.3482 50.6707C67.3881 50.6326 67.4279 50.5564 67.4678 50.5183C67.7069 50.2135 67.9062 49.8324 68.0657 49.4894C68.0657 49.4513 68.1055 49.3751 68.1055 49.337C68.1055 49.2608 68.1454 49.1846 68.1852 49.1084C68.1852 49.0321 68.1852 48.994 68.2251 48.9178C68.2251 48.8416 68.2251 48.8035 68.265 48.7273C68.265 48.6511 68.265 48.5749 68.265 48.5368C68.265 48.4605 68.265 48.3843 68.265 48.27C68.265 48.1557 68.265 48.0795 68.265 47.9651C68.265 46.4028 67.388 45.0309 66.0727 44.2688C65.9133 44.1925 65.714 44.0782 65.5545 44.002C65.4748 44.002 65.3951 43.9258 65.3154 43.9258C65.2356 43.9258 65.1559 43.8877 65.0762 43.8496C64.9965 43.8496 64.9168 43.8115 64.7972 43.7734C64.7573 43.7734 64.7175 43.7734 64.6776 43.7734L64.6741 7.95268C65.0328 8.37186 65.3552 8.75293 65.5944 9.17211C65.7937 9.47696 65.9531 9.78182 66.1524 10.1248C67.9461 13.1734 69.7398 16.2219 71.5334 19.3086C73.646 22.8526 75.7187 26.4346 77.8312 30.0167C78.1501 30.5121 78.4291 31.0456 78.748 31.541C79.2263 32.3793 79.7046 33.1796 80.1829 33.9798C81.5381 36.2663 82.8933 38.5527 84.2486 40.801C85.7632 43.3542 86.6401 45.793 85.5241 48.6892Z" fill="#D7D9F6"/>
<path d="M75.6389 96.3612C78.4291 99.5241 81.1794 102.725 83.9297 105.964C84.2087 106.269 84.4877 106.574 84.7269 106.879C85.0979 107.315 85.4491 107.792 85.9111 108.419C86.094 108.667 86.2945 108.939 86.5205 109.241C86.8557 107.782 87.1821 106.422 87.4958 105.115C87.8536 103.625 88.195 102.203 88.5135 100.782C89.3107 97.3139 90.1079 93.8461 90.8253 90.3784C91.3435 87.8252 90.7058 85.4625 88.952 83.4429C88.4752 82.8732 87.9937 82.2979 87.517 81.7662C86.4742 80.5923 85.4314 79.4117 84.3826 78.2243C82.9465 76.5983 81.4975 74.9578 80.0235 73.3064L75.0012 95.8277C75.2403 95.9801 75.4396 96.1325 75.6389 96.3612Z" fill="#5E62B8"/>
<path d="M39.0481 83.4429C39.5127 82.9246 39.9773 82.3705 40.4419 81.8153L40.4431 81.8043C42.3901 79.5462 44.389 77.3117 46.4177 75.0438C46.9223 74.4798 47.4287 73.9136 47.9367 73.3445L52.959 95.8658C52.7198 95.9801 52.5205 96.1706 52.3212 96.3993C50.2882 98.6714 48.3148 100.985 46.3461 103.294C45.5748 104.198 44.8046 105.101 44.0305 106.002V105.964C43.911 106.117 43.7815 106.269 43.652 106.421C43.5225 106.574 43.3927 106.726 43.2731 106.879C42.9019 107.316 42.5503 107.793 42.0881 108.42C41.9053 108.668 41.7052 108.939 41.4795 109.241C40.7221 106.117 40.0843 103.449 39.4865 100.781C38.6893 97.3137 37.8921 93.846 37.1747 90.3784C36.6565 87.8252 37.2942 85.4625 39.0481 83.4429Z" fill="#5E62B8"/>
<path d="M64.2646 6.68457C64.4053 6.85751 64.5433 7.02719 64.6748 7.18555L65.0459 7.61914L65.0537 7.62793C65.4007 8.03344 65.748 8.44195 66.0127 8.89844C66.1595 9.123 66.2858 9.3457 66.4092 9.56445C66.4663 9.66573 66.5226 9.76703 66.583 9.87109C68.3757 12.9179 70.1693 15.9663 71.9629 19.0527L73.8857 22.3037C74.5245 23.3899 75.1623 24.4784 75.7998 25.5674C76.6145 26.959 77.4305 28.3531 78.252 29.7461L78.4932 30.1377C78.5714 30.2688 78.6474 30.3995 78.7217 30.5273C78.7969 30.6567 78.8706 30.7835 78.9443 30.9072L79.168 31.2705L79.1758 31.2812L79.1826 31.293C79.4203 31.7096 79.6573 32.1173 79.8955 32.5205L80.6123 33.7236L80.6133 33.7246C81.291 34.8681 81.9682 36.0114 82.6455 37.1494L84.6768 40.543L84.6787 40.5459C86.2198 43.1437 87.1896 45.7567 85.9902 48.8691C85.5988 49.885 85.3894 51.0084 85.1748 52.1689C85.0989 52.5793 85.0228 52.9946 84.9375 53.4023L84.9355 53.4111C83.4402 59.9947 81.9442 66.6151 80.4873 73.126L82.0898 74.9111L82.0977 74.9189C82.1002 74.9217 82.1028 74.9248 82.1055 74.9277C83.0001 75.9218 83.8959 76.9177 84.7578 77.8936C85.8062 79.0805 86.8479 80.26 87.8896 81.4326L88.6152 82.2666C88.8548 82.5481 89.0933 82.8334 89.3291 83.1152L89.6631 83.5195C91.2625 85.564 91.8309 87.9371 91.3154 90.4775V90.4795C90.5967 93.9535 89.7979 97.4267 89.001 100.894L89 100.893C88.6807 102.317 88.3398 103.743 87.9824 105.231C87.6687 106.538 87.3423 107.897 87.0078 109.354L86.7666 110.405L86.1201 109.541C85.8938 109.238 85.6911 108.963 85.5088 108.716C85.0446 108.086 84.7031 107.623 84.3457 107.202L84.3398 107.195L84.333 107.188C84.1077 106.9 83.8423 106.61 83.5605 106.302L83.5488 106.288C80.7997 103.05 78.051 99.8521 75.2637 96.6924L75.2617 96.6895C75.1342 96.5432 74.9495 96.4061 74.748 96.2734C74.3489 96.2297 73.5424 96.1446 72.8018 96.0674C72.5522 96.0414 72.3104 96.0165 72.0947 95.9941C72.2393 96.3321 72.3941 96.6906 72.5391 96.9971L72.6943 97.3105L72.6982 97.3184L72.7012 97.3262C73.298 98.568 73.8946 99.8681 74.5156 101.222L74.7783 101.792L75.1035 102.501H74.0078C74.1479 102.798 74.2915 103.098 74.4385 103.402C74.5614 103.657 74.6905 103.925 74.8154 104.188L75.1553 104.901H52.8057L53.1455 104.188C53.2867 103.891 53.4229 103.597 53.5586 103.306C53.6839 103.037 53.8095 102.769 53.9365 102.501H52.8086L53.1445 101.788C53.5433 100.941 53.9338 100.096 54.3164 99.2686C54.6192 98.6139 54.9164 97.972 55.2158 97.332L55.7168 96.2783C55.7594 96.1896 55.805 96.0987 55.8506 96.0078C55.6498 96.0304 55.4288 96.057 55.2012 96.082C54.4661 96.163 53.643 96.2483 53.2275 96.2793C53.0682 96.3746 52.8465 96.5575 52.6982 96.7275L52.6943 96.7324L52.3213 96.3994L52.6934 96.7324C50.665 98.9994 48.6959 101.309 46.7266 103.618C45.9554 104.522 45.1849 105.426 44.4102 106.328L43.5615 107.314C43.2367 107.706 42.9146 108.141 42.4902 108.717C42.3076 108.965 42.1066 109.238 41.8799 109.541L41.2441 110.392L40.9932 109.359C40.2359 106.235 39.5978 103.564 38.999 100.893C38.2021 97.4261 37.4033 93.9532 36.6846 90.4795V90.4775C36.1347 87.7677 36.8185 85.2485 38.6709 83.1152L38.6758 83.1094C39.1023 82.6336 39.5293 82.1251 39.9619 81.6084L39.9639 81.5947L40.0645 81.4775C42.0149 79.2154 44.0167 76.9773 46.0449 74.71C46.2982 74.4268 46.5812 74.1252 46.8594 73.8281C47.0835 73.5888 47.3032 73.3499 47.5098 73.123C46.699 69.5707 45.8991 66.0073 45.0986 62.4404C44.4237 59.4329 43.7482 56.4223 43.0645 53.4121L42.8994 52.6309C42.8483 52.3715 42.8004 52.1136 42.7529 51.8594C42.5543 50.7947 42.3665 49.795 42.0098 48.8691C40.8149 45.7684 41.6509 43.1613 43.2002 40.5107L43.2021 40.5078C44.5571 38.2218 45.9133 35.9337 47.2695 33.6836C47.5068 33.2866 47.7444 32.8792 47.9834 32.4697C48.2222 32.0606 48.4625 31.6487 48.7031 31.2461L48.708 31.2393L48.7119 31.2324C48.8641 30.9959 49.0078 30.7482 49.1582 30.4893C49.3035 30.2392 49.4556 29.9783 49.6182 29.7246C50.6739 27.9344 51.7215 26.1523 52.7676 24.3711C53.8135 22.5902 54.8598 20.8075 55.916 19.0166L58.6064 14.4395C59.5029 12.9111 60.3996 11.3784 61.2959 9.83594L61.3027 9.82422L61.3096 9.81348C61.4356 9.62065 61.546 9.42524 61.6719 9.20215C61.729 9.10092 61.789 8.9939 61.8535 8.88281C62.0272 8.57906 62.2339 8.31671 62.4404 8.0625L62.5303 7.95215L62.5605 7.91602C62.604 7.86275 62.6463 7.81071 62.6904 7.75586L62.6992 7.74512L62.708 7.73535C62.9122 7.50797 63.1917 7.09021 63.4736 6.70508L63.8564 6.18164L64.2646 6.68457Z" stroke="white"/>
<path d="M53.5 109H74L87 128H41L53.5 109Z" fill="url(#paint0_linear_19_1289)"/>
<defs>
<linearGradient id="paint0_linear_19_1289" x1="85.5949" y1="109" x2="73.5197" y2="140.086" gradientUnits="userSpaceOnUse">
<stop stop-color="#F7E3E3"/>
<stop offset="1" stop-color="white"/>
</linearGradient>
</defs>
</svg>
